<?xml version='1.0' standalone='no'?>
<svg width="100" height="100" viewBox="0 0 600 600" xmlns="http://www.w3.org/2000/svg"><g transform="translate(300,300)"><path stroke="white" stroke-width="3" fill="none" d="M146.9334769241547,-181.4418323300532C182.8789599091003,-144.9466574815628,199.27592890938695,-91.48780419531028,207.7576598162337,-37.50355240067441C216.23939072308042,16.480699393961473,216.80588353648727,70.99034969698072,194.1421827840218,113.81990495567645C171.47848203155638,156.64946021437217,125.5845877132186,187.7989204287444,73.10990151360033,211.51765324940843C20.635215313982044,235.2363860700724,-38.420262766916764,251.52439149702818,-92.1165638426707,238.3663280565087C-145.81286491842465,225.2082646159893,-194.1499889890337,182.60413230799472,-216.1473999230385,131.22539525459828C-238.14481085704335,79.84665820120185,-233.80250865444393,19.693316402403582,-220.49220068628588,-35.94155761578C-207.18189271812784,-91.57643163396358,-184.90357898441118,-142.69283787153248,-146.6602112424371,-178.78283363880004C-108.41684350046302,-214.87282940606758,-54.20842175023151,-235.93641470303382,0.6427876096865219,-236.7024591461528C55.49399696960455,-237.46850358927176,110.9879939392091,-217.93700717854355,146.9334769241547,-181.4418323300532Z"/></g></svg>